# xmcd
#
# Track frame offsets:
#	150
#	12056
#	23883
#	36024
#	49599
#	68890
#	81755
#	95003
#	107916
#	119799
#	135748
#	148842
#	160897
#	175849
#	188453
#	204795
#	215393
#	227599
#
# Disc length: 3201
#
# Revision: 2
# Processed by: cddbd v1.5.1PL0 Copyright (c) Steve Scherf et al.
# Submitted via: EasyCDDAExtractor 4.6.0.1
# Normalized: r0:TDELIM( - ),TSWAP
#
DISCID=f20c7f12
DTITLE=Various Artist - Country Musics Greatest Hits
DYEAR=1997
DGENRE=Country
TTITLE0=Tennessee Ernie Ford - Sixteen Tonnes
TTITLE1=Johnny Cash - Ring Of Fire
TTITLE2=Glen Cambell - Galveston
TTITLE3=Jimmy Dean - Big Bad John
TTITLE4=Bobbie Gentry - Ode To Billy Joe
TTITLE5=Jim Reeves - Distant Drums
TTITLE6=Crystal Gayle - Talking In Your Sleep
TTITLE7=Don Williams - The Story Of My Life
TTITLE8=Tammy Wynette - I Don't Wanna Play House
TTITLE9=Willie Nelson - Always On My Mind
TTITLE10=Lynn Anderson - Rose Garden
TTITLE11=Dolly Parton - Jolene
TTITLE12=Jimmie Rodgers - Just A Closer Walk With Thee
TTITLE13=Dolly Parton and Porter Wagoner - Please Don't Stop Loving Me
TTITLE14=Billie Jo Spears - Blanket On The Ground
TTITLE15=Willie Nelson - Blue Eyes Crying In The Rain
TTITLE16=Tammy Wynette - Stand By Your Man
TTITLE17=Don Williams - You're My Best Friend
EXTD=
EXTT0=
EXTT1=
EXTT2=
EXTT3=
EXTT4=
EXTT5=
EXTT6=
EXTT7=
EXTT8=
EXTT9=
EXTT10=
EXTT11=
EXTT12=
EXTT13=
EXTT14=
EXTT15=
EXTT16=
EXTT17=
PLAYORDER=
